<?xml version="1.0" encoding="UTF-8" standalone="no"?>
<svg
   xmlns:dc="http://purl.org/dc/elements/1.1/"
   xmlns:cc="http://creativecommons.org/ns#"
   xmlns:rdf="http://www.w3.org/1999/02/22-rdf-syntax-ns#"
   xmlns:svg="http://www.w3.org/2000/svg"
   xmlns="http://www.w3.org/2000/svg"
   xmlns:sodipodi="http://sodipodi.sourceforge.net/DTD/sodipodi-0.dtd"
   xmlns:inkscape="http://www.inkscape.org/namespaces/inkscape"
   inkscape:version="1.0 (4035a4f, 2020-05-01)"
   height="6"
   width="6"
   sodipodi:docname="Express6.svg"
   id="svg3434"
   version="1.1"
   viewBox="0 0 6 6">
  <metadata
     id="metadata3440">
    <rdf:RDF>
      <cc:Work
         rdf:about="">
        <dc:format>image/svg+xml</dc:format>
        <dc:type
           rdf:resource="http://purl.org/dc/dcmitype/StillImage" />
        <dc:title></dc:title>
      </cc:Work>
    </rdf:RDF>
  </metadata>
  <defs
     id="defs3438" />
  <sodipodi:namedview
     inkscape:current-layer="svg3434"
     inkscape:window-maximized="1"
     inkscape:window-y="23"
     inkscape:window-x="0"
     inkscape:cy="3.0031716"
     inkscape:cx="2.8172406"
     inkscape:zoom="73.75"
     showgrid="false"
     id="namedview3436"
     inkscape:window-height="776"
     inkscape:window-width="1440"
     inkscape:pageshadow="2"
     inkscape:pageopacity="0"
     guidetolerance="10"
     gridtolerance="10"
     objecttolerance="10"
     borderopacity="1"
     bordercolor="#666666"
     pagecolor="#ffffff" />
  <path
     style="stroke-width:0.0478583"
     id="path3432"
     d="m 6,4.6402404 c -0.218234,0.05552 -0.3531945,0.0024 -0.4742761,-0.179468 -0.2718354,-0.407275 -0.5719072,-0.795885 -0.8614502,-1.191673 -0.037329,-0.05121 -0.076095,-0.10146 -0.1244316,-0.165111 -0.3426657,0.462311 -0.6848529,0.902608 -1.0059823,1.360612 -0.11486,0.163676 -0.2354631,0.234985 -0.4498684,0.177076 l 1.2883465,-1.729122 -1.19933,-1.561617 c 0.2062694,-0.0402 0.3488873,-0.01962 0.4752333,0.165111 0.2790141,0.407753 0.5867432,0.795884 0.8935152,1.206509 0.3086863,-0.409189 0.6125867,-0.797799 0.8997368,-1.201723 0.1153386,-0.163676 0.2392917,-0.225892 0.4465183,-0.16559 -0.1569754,0.208184 -0.3106006,0.413017 -0.4651831,0.616415 -0.2086623,0.274229 -0.413496,0.551807 -0.6298157,0.820292 -0.077052,0.09572 -0.064609,0.157933 0.00431,0.248385 C 5.1974156,3.5662994 5.5927255,4.0975274 6,4.6402404 Z M 0.0014358,2.8838394 c 0.034458,-0.172768 0.05743,-0.348887 0.1052883,-0.518305 0.28715,-1.025605 1.4644652,-1.45202197 2.2732711,-0.816464 0.4737976,0.372817 0.5915291,0.898301 0.5680785,1.490788 H 0.2775784 c -0.040201,1.062933 0.7250538,1.704714 1.7004068,1.377363 0.3421871,-0.11486 0.5436707,-0.382867 0.6446518,-0.717876 0.051208,-0.167982 0.1359177,-0.194304 0.2938502,-0.146446 -0.080881,0.419239 -0.264178,0.769562 -0.6470447,0.988753 C 1.6951424,4.8699604 0.875329,4.7637154 0.4441254,4.3076254 0.189519,4.0396184 0.0813592,3.7060464 0.0335008,3.3456724 0.0263221,3.2882424 0.011486,3.2317694 0,3.1748184 q 0.00144,-0.145489 0.00144,-0.290979 z m 0.2809284,-0.07131 H 2.6958603 C 2.680067,2.0439254 2.2014836,1.4978624 1.5472601,1.4930764 0.829385,1.4873334 0.3134721,2.0204754 0.2823642,2.8125294 Z"
     fill="#444444" />
</svg>
