<?xml version="1.0" encoding="UTF-8" standalone="no"?>
<svg
   xmlns:dc="http://purl.org/dc/elements/1.1/"
   xmlns:cc="http://creativecommons.org/ns#"
   xmlns:rdf="http://www.w3.org/1999/02/22-rdf-syntax-ns#"
   xmlns:svg="http://www.w3.org/2000/svg"
   xmlns="http://www.w3.org/2000/svg"
   xmlns:sodipodi="http://sodipodi.sourceforge.net/DTD/sodipodi-0.dtd"
   xmlns:inkscape="http://www.inkscape.org/namespaces/inkscape"
   inkscape:version="1.0 (4035a4f, 2020-05-01)"
   height="6"
   width="6"
   sodipodi:docname="Node6.svg"
   id="svg2807"
   version="1.1"
   viewBox="0 0 6 6">
  <metadata
     id="metadata2813">
    <rdf:RDF>
      <cc:Work
         rdf:about="">
        <dc:format>image/svg+xml</dc:format>
        <dc:type
           rdf:resource="http://purl.org/dc/dcmitype/StillImage" />
        <dc:title></dc:title>
      </cc:Work>
    </rdf:RDF>
  </metadata>
  <defs
     id="defs2811" />
  <sodipodi:namedview
     inkscape:current-layer="svg2807"
     inkscape:window-maximized="1"
     inkscape:window-y="23"
     inkscape:window-x="0"
     inkscape:cy="2.9692225"
     inkscape:cx="2.7653767"
     inkscape:zoom="73.75"
     showgrid="false"
     id="namedview2809"
     inkscape:window-height="776"
     inkscape:window-width="1440"
     inkscape:pageshadow="2"
     inkscape:pageopacity="0"
     guidetolerance="10"
     gridtolerance="10"
     objecttolerance="10"
     borderopacity="1"
     bordercolor="#666666"
     pagecolor="#ffffff" />
  <path
     style="stroke-width:0.04962"
     id="path2805"
     d="M 5.449494,1.3294679 3.261402,0.0589485 c -0.137993,-0.078598 -0.317667,-0.078598 -0.456751,0 L 0.593187,1.3294679 C 0.450778,1.4113905 0.35,1.5653613 0.35,1.73005 v 2.5376645 c 0,0.1646888 0.103408,0.3187091 0.245817,0.4010782 l 0.584276,0.3318585 c 0.279261,0.1375465 0.377955,0.1375465 0.505032,0.1375465 0.413483,0 0.649674,-0.250035 0.649674,-0.6861449 V 1.9467404 c 0,-0.035379 -0.01841,-0.088026 -0.05315,-0.088026 H 2.002635 c -0.03533,0 -0.114423,0.052646 -0.114423,0.087977 v 2.5053124 c 0,0.1933194 -0.174861,0.385696 -0.501658,0.2222974 L 0.782835,4.3263157 C 0.761795,4.3149037 0.746965,4.2919287 0.746965,4.2677147 V 1.73005 c 0,-0.023917 0.02754,-0.047933 0.04873,-0.060189 L 3.000007,0.4015251 c 0.02059,-0.011661 0.05086,-0.011661 0.0714,0 L 5.24883,1.6695635 c 0.02084,0.012554 0.01349,0.035826 0.01349,0.060487 V 4.267715 c 0,0.024214 0.0091,0.047784 -0.01151,0.059445 L 3.063264,5.5962404 c -0.01876,0.011264 -0.04202,0.011264 -0.06257,0 L 2.439646,5.2613545 c -0.01692,-0.00982 -0.03702,-0.013348 -0.05324,-0.00427 -0.156104,0.088472 -0.184883,0.1002323 -0.331312,0.1509936 -0.03602,0.012554 -0.08917,0.034337 0.02034,0.095717 L 2.80971,5.9381684 c 0.07031,0.040687 0.1502,0.061827 0.230584,0.061827 0.08147,0 0.161265,-0.02114 0.231577,-0.061827 L 5.449445,4.668788 C 5.591853,4.585823 5.659337,4.4323986 5.659337,4.2677098 V 1.73005 c 0,-0.1646887 -0.06748,-0.3182625 -0.209843,-0.4005821 z M 3.719692,3.8655943 c -0.581843,0 -0.710012,-0.1605206 -0.752735,-0.4498546 -0.005,-0.031161 -0.03141,-0.068426 -0.06312,-0.068426 H 2.619465 c -0.03518,0 -0.06346,0.042673 -0.06346,0.077705 0,0.3704628 0.201407,0.819325 1.163737,0.819325 0.696615,0 1.096006,-0.270677 1.096006,-0.7497082 0,-0.4749623 -0.320893,-0.5996076 -0.996469,-0.6890229 C 3.13641,2.7153536 3.067041,2.6697531 3.067041,2.5097784 c 0,-0.1318899 0.05875,-0.3077927 0.564377,-0.3077927 0.45179,0 0.618315,0.096957 0.68684,0.4014751 0.0058,0.028631 0.03201,0.049173 0.06153,0.049173 h 0.285514 c 0.01756,0 0.03433,-0.0071 0.04664,-0.01965 0.01191,-0.013496 0.01821,-0.030417 0.01663,-0.048578 -0.04421,-0.5243836 -0.392592,-0.768762 -1.097196,-0.768762 -0.626749,0 -1.000635,0.264673 -1.000635,0.7083251 0,0.4812144 0.372,0.614196 0.973643,0.6736904 0.719737,0.070559 0.775708,0.1757539 0.775708,0.3173197 0,0.245867 -0.197388,0.3506147 -0.660392,0.3506147 z"
     fill="#444444" />
</svg>
