<?xml version="1.0" encoding="UTF-8" standalone="no"?>
<svg
   xmlns:dc="http://purl.org/dc/elements/1.1/"
   xmlns:cc="http://creativecommons.org/ns#"
   xmlns:rdf="http://www.w3.org/1999/02/22-rdf-syntax-ns#"
   xmlns:svg="http://www.w3.org/2000/svg"
   xmlns="http://www.w3.org/2000/svg"
   xmlns:sodipodi="http://sodipodi.sourceforge.net/DTD/sodipodi-0.dtd"
   xmlns:inkscape="http://www.inkscape.org/namespaces/inkscape"
   inkscape:version="1.0 (4035a4f, 2020-05-01)"
   sodipodi:docname="React6.svg"
   id="svg2182"
   viewBox="0 0 6 6"
   height="6"
   width="6"
   version="1.1">
  <defs
     id="defs2186" />
  <sodipodi:namedview
     inkscape:current-layer="svg2182"
     inkscape:window-maximized="1"
     inkscape:window-y="23"
     inkscape:window-x="0"
     inkscape:cy="3.630743"
     inkscape:cx="3.8059223"
     inkscape:zoom="73.375"
     showgrid="false"
     id="namedview2184"
     inkscape:window-height="773"
     inkscape:window-width="1440"
     inkscape:pageshadow="2"
     inkscape:pageopacity="0"
     guidetolerance="10"
     gridtolerance="10"
     objecttolerance="10"
     borderopacity="1"
     bordercolor="#666666"
     pagecolor="#ffffff" />
  <path
     style="stroke-width:0.229183"
     id="path2176"
     d="m 3.5482049,2.9761651 a 0.54820476,0.54820476 0 1 1 -1.0964095,0 0.54820476,0.54820476 0 0 1 1.0964095,0 z"
     fill="#444444" />
  <path
     style="stroke-width:0.229183"
     id="path2178"
     d="m 3.0000001,4.9920552 c 0.4304049,0.4184872 0.8546219,0.6660046 1.1965623,0.6660046 0.1120703,0 0.2181818,-0.023602 0.3064171,-0.076549 C 4.8093967,5.4045843 4.9214669,4.9624907 4.8153554,4.3317801 4.7977084,4.2197099 4.7741025,4.1078688 4.744538,3.9898397 4.8623378,3.9545456 4.9684494,3.9190223 5.0745609,3.8837282 5.6699775,3.6538581 6,3.3355234 6,2.9878535 6,2.6342247 5.6699775,2.3158901 5.0745609,2.0919787 4.9684494,2.0507259 4.8623378,2.0154317 4.744538,1.9858672 4.7741025,1.8680673 4.7977084,1.755997 4.8153554,1.6439267 4.9155082,1.0015279 4.8036671,0.55347597 4.4970208,0.37654703 4.4085563,0.32360583 4.3024448,0.3 4.1906037,0.3 3.854622,0.3 3.4242171,0.54751718 2.9940414,0.9660046 2.5695952,0.54751718 2.1451491,0.3 1.8034378,0.3 1.6913675,0.3 1.585256,0.32360583 1.4970207,0.37654703 1.1906036,0.55347597 1.0785332,0.99556912 1.1846448,1.6262796 1.2022919,1.7383499 1.2258976,1.850191 1.2554623,1.96822 1.1376624,2.0035142 1.0315508,2.0390375 0.92543926,2.0743316 0.33002291,2.3042017 0,2.6225364 0,2.9702063 0,3.3238351 0.33002291,3.6421697 0.92543926,3.8660811 1.0315508,3.9073337 1.1376624,3.9426281 1.2554623,3.9721926 a 3.8690605,3.8690605 0 0 0 -0.070817,0.3419405 c -0.1001528,0.6307104 0.011689,1.0787626 0.3123759,1.2497329 0.088464,0.05317 0.194576,0.076549 0.3064171,0.076549 0.3419404,0.01169 0.7663866,-0.2358287 1.1965623,-0.6483578 z M 2.669748,4.1963332 c 0.1061115,0.00596 0.2181818,0.00596 0.3300229,0.00596 0.1118411,0 0.2239114,0 0.3300229,-0.00596 A 5.6202447,5.6202447 0 0 1 2.9997709,4.5912148 5.5581362,5.5581362 0 0 1 2.669748,4.1963332 Z M 1.9388847,3.5892285 c 0.0589,0.1001529 0.1120703,0.1945761 0.176929,0.2887701 A 6.3680675,6.3680675 0 0 1 1.5971735,3.7895341 C 1.6503435,3.6304814 1.7092438,3.4652408 1.779832,3.3002293 1.827044,3.3944233 1.8799848,3.4948053 1.9388847,3.5889994 Z M 1.5969443,2.1685257 C 1.7619557,2.1332316 1.932926,2.103667 2.1155845,2.0800611 2.0566846,2.1744844 1.9977847,2.2686784 1.9386555,2.3688313 1.8795265,2.468984 1.8265853,2.5634072 1.7796028,2.66356 A 3.9210849,3.9210849 0 0 1 1.5969443,2.1682965 Z M 1.9212376,2.9761651 C 1.9977847,2.8171124 2.0802904,2.6578305 2.1747136,2.4987778 2.2631781,2.3454546 2.3633309,2.1923606 2.4634836,2.0390375 a 8.0885412,8.0885412 0 0 1 1.0730329,0 c 0.1061116,0.1533231 0.2003057,0.3064171 0.2887701,0.4597403 0.094423,0.1590527 0.176929,0.3183346 0.253476,0.4773873 A 6.1700537,6.1700537 0 0 1 3.8252866,3.4535524 C 3.7368222,3.6068756 3.6366693,3.7599696 3.5365165,3.9132927 a 8.0885412,8.0885412 0 0 1 -1.0730329,0 6.5763944,6.5763944 0 0 1 -0.28877,-0.4597403 6.2122233,6.2122233 0 0 1 -0.253476,-0.4773873 z M 4.226127,2.6578305 4.0670742,2.3631017 C 4.0081743,2.2629489 3.955004,2.1685257 3.8901453,2.0743316 4.0728039,2.0979374 4.243774,2.1275019 4.4087855,2.1627961 4.3558443,2.3278076 4.2967152,2.492819 4.226127,2.6580597 Z m 0,0.6366693 c 0.070817,0.1650114 0.1297173,0.3300229 0.1826585,0.4893048 -0.1650115,0.035294 -0.3359816,0.064859 -0.5186402,0.088464 0.0589,-0.094423 0.1177999,-0.1886173 0.1769289,-0.28877 0.05317,-0.088464 0.1061116,-0.1886173 0.1590528,-0.2887701 z m 0.1354469,2.0454546 c -0.047212,0.029565 -0.1061116,0.041253 -0.1709702,0.041253 -0.2887701,0 -0.6483576,-0.235829 -1.0019863,-0.5894577 A 6.1576779,6.1576779 0 0 0 3.6896105,4.1727274 5.4130636,5.4130636 0 0 0 4.4796029,4.0489688 c 0.029565,0.1061115 0.047212,0.2122231 0.064859,0.3183347 0.082506,0.5009931 0.017647,0.8605805 -0.1826586,0.9726509 z M 4.6682202,2.2333843 c 0.6602751,0.1886173 1.0551566,0.4773874 1.0551566,0.7427808 0,0.2298702 -0.2711229,0.4597403 -0.7485103,0.642628 -0.094423,0.035295 -0.2003056,0.070817 -0.3064171,0.1001528 A 6.1902217,6.1902217 0 0 0 4.3796793,2.9761651 C 4.4974791,2.7226892 4.5978611,2.475172 4.6684494,2.2333843 Z M 4.1965624,0.571123 c 0.064858,0 0.1177998,0.0116886 0.1709702,0.0412526 0.1945761,0.11207025 0.2651643,0.4656991 0.1826586,0.9726509 -0.017647,0.1001528 -0.041253,0.2062643 -0.064858,0.3183347 A 7.5795266,7.5795266 0 0 0 3.6953401,1.7796028 5.4485869,5.4485869 0 0 0 3.1943469,1.1605807 C 3.5479757,0.81268149 3.9075632,0.571123 4.1963332,0.571123 Z M 3.3300231,1.755997 c -0.1061116,-0.00596 -0.2181819,-0.00596 -0.330023,-0.00596 -0.1118411,0 -0.2239114,0 -0.3300229,0.00596 C 2.7760887,1.6145913 2.888159,1.484874 3.0000001,1.3611154 3.1120704,1.484874 3.2239115,1.6205501 3.3300231,1.755997 Z M 1.6381971,0.61237587 c 0.047212,-0.0295649 0.1061116,-0.0412526 0.1709703,-0.0412526 0.28877,0 0.6483575,0.23582893 1.0019863,0.58945763 A 6.1320094,6.1320094 0 0 0 2.3101605,1.7796028 5.4130636,5.4130636 0 0 0 1.5201681,1.9033614 C 1.4906036,1.7972499 1.4729565,1.6911383 1.4553095,1.5850268 1.3728037,1.0840336 1.4376624,0.73040491 1.637968,0.61237587 Z M 1.3317801,3.7189459 C 0.671505,3.5303286 0.27662341,3.2415586 0.27662341,2.9761651 c 0,-0.2298701 0.271123,-0.4597403 0.74851029,-0.6423988 0.094423,-0.035294 0.2003057,-0.070817 0.3064171,-0.1001528 A 6.1902217,6.1902217 0 0 0 1.6203209,2.9763943 C 1.5025211,3.2298702 1.4021391,3.4833462 1.3315508,3.719175 Z m 0.1237585,0.6483576 c 0.017647,-0.1001528 0.041253,-0.2062644 0.064859,-0.3183347 0.2475171,0.053171 0.5129106,0.094423 0.7899923,0.1237586 a 5.4485869,5.4485869 0 0 0 0.5009934,0.6190222 c -0.3536287,0.34767 -0.7132161,0.5894576 -1.0019863,0.5894576 -0.064858,0 -0.1177998,-0.011689 -0.1709701,-0.041253 C 1.4378916,5.227884 1.3732621,4.8682966 1.4557678,4.3673035 Z"
     fill="#444444" />
  <metadata
     id="metadata2180">
    <rdf:RDF>
      <rdf:Description
         dc:language="en"
         dc:format="image/svg+xml"
         dc:date="2017-09-24"
         dc:publisher="Iconscout"
         dc:description="react"
         dc:title="react"
         about="https://iconscout.com/legal#licenses">
        <dc:creator>
          <rdf:Bag>
            <rdf:li>Vorillaz</rdf:li>
          </rdf:Bag>
        </dc:creator>
      </rdf:Description>
      <cc:Work
         rdf:about="">
        <dc:format>image/svg+xml</dc:format>
        <dc:type
           rdf:resource="http://purl.org/dc/dcmitype/StillImage" />
        <dc:title></dc:title>
      </cc:Work>
    </rdf:RDF>
  </metadata>
</svg>
